<svg version="1.1" xmlns="http://www.w3.org/2000/svg" viewBox="-2446.3025065215465 -1627.776057434082 6533.086735037172 2699.520071411133"><desc>Created with Snap</desc><defs></defs><g><g transform="matrix(22.6111,0,0,22.6111,-2339.5727,-1408.0811)"><g><g><path d="M66.677,83.168c-10.74,5.7-24.37,3.026-32.06-6.9l-7.868,6.086c11.055,14.293,30.951,17.795,46.096,8.777l2.947,3.993    l3.462-15.363l-14.795-0.273L66.677,83.168z" fill="#59886f" style=""></path><path d="M65.796,27.868l-7.589,1.995l2.83,4.25c0.379-0.735,0.797-1.456,1.269-2.158C63.312,30.457,64.499,29.106,65.796,27.868z" fill="#59886f" style=""></path><path d="M78.73,52.316c1.925,5.468,2.013,11.607-0.201,17.437l9.312,3.535c3.736-9.84,2.758-20.317-1.779-28.98    C83.707,48.253,81.178,50.777,78.73,52.316z" fill="#59886f" style=""></path><path d="M19.394,62.346l-4.141,0.861l11.146,10.138l7.359-13.358l-4.441,0.668c0.008-4.352,1.178-8.505,3.193-12.166    c-2.806-0.785-5.825-2.25-8.805-4.729C20.664,49.316,19.082,55.707,19.394,62.346z" fill="#59886f" style=""></path><path d="M74.351,31.896c-1.787,1.796-3.941,4.25-6.071,7.347c-3.728,5.429-7.363,12.877-8.845,22.378    c0.781,3.048,1.401,6.284,1.836,9.718l3.438,0.097c-0.072-3.691,0.201-15.966,5.737-30.64    C71.537,37.905,72.813,34.928,74.351,31.896z" fill="#59886f" style=""></path><path d="M70.59,26.608c-2.557,1.792-4.854,3.938-6.574,6.5c-0.648,0.966-1.187,1.975-1.638,3.011    c-1.421,3.275-1.868,6.892-1.313,10.82c0.843-1.848,2.102-4.348,3.817-7.062c1.98-3.142,4.609-6.548,7.862-9.602    c1.252-1.175,2.593-2.292,4.042-3.317c0.395-0.306,0.696-0.523,0.7-0.525c0-0.002,0.505-0.414,1.069-0.012    c0.833,0.594,0.453,1.292,0.392,1.393c-0.636,1.071-1.207,2.134-1.778,3.196c-0.262,0.5-0.548,1.061-0.85,1.661    c-1.232,2.474-2.737,5.767-4.159,9.614c-1.139,3.07-2.222,6.478-3.06,10.093c0.483,0.095,1.147,0.183,1.944,0.183    c1.65,0,4.106-0.437,6.804-2.234c2.279-1.521,4.723-4.046,7.014-8.17c2.834-5.103,5.418-12.625,7.105-23.779    C88.364,19.02,78.305,21.199,70.59,26.608z" fill="#59886f" style=""></path><path d="M47.011,26.213C40.273,12.679,22.785,6.62,8.866,3.87c2.522,17.816,12.212,51.438,37.582,42.002    c-0.99-2.199-1.618-4.332-3.903-5.22c-1.048-0.409-2.097-0.815-3.146-1.224c-3.114-1.212-6.23-2.426-9.344-3.638    c-0.765-0.296-2.281-0.596-1.957-1.757c0.39-1.389,2.949-0.422,3.851-0.262c2.864,0.505,5.729,1.013,8.593,1.518    c-3.615-5.278-8.023-10.013-13.162-13.835c-0.666-0.5-0.481-1.576,0.322-1.814c0.807-0.239,2.169,0.506,2.737,0.894    c2.925,2.007,5.777,4.259,8.42,6.625c-0.05-1.63-1.532-7.957,1.326-5.543c0.855,1.924,1.292,4.05,1.882,6.067    c0.699,2.385,1.164,3.738,2.782,5.62c1.552,1.803,3.003,3.689,4.362,5.644C49.678,34.479,49.026,30.26,47.011,26.213    C46.576,25.34,48.521,29.245,47.011,26.213z" fill="#59886f" style=""></path><path d="M59.475,73.353c-1.702-15.886-8.541-31.392-19.384-42.236c1.854,2.403,3.366,4.838,4.798,7.251    c-1.886-0.405-3.772-0.811-5.658-1.216c2.379,0.926,5.933,1.496,7.099,3.786c10.322,20.269,8.756,34.174,8.471,40.083    c0,0,4.461-0.097,5.146,0C59.906,78.461,59.736,75.9,59.475,73.353C59.438,73.015,59.729,75.815,59.475,73.353z" fill="#59886f" style=""></path></g></g><desc>Created with Snap</desc><defs></defs></g><g><g transform="matrix(1.024,0,0,-1.024,0,0)"><path d="M377 385L615 385L615 62L614 62L615 55Q528 -8 397 -8Q239 -8 142 85Q46 178 46 338Q46 493 143 589Q241 686 391 686Q508 686 587 641L587 535Q501 589 395 589Q287 589 220 520Q154 451 154 338Q154 222 219 155Q285 88 400 88Q460 88 514 110L514 296L377 296L377 385ZM750 507L848 507L848 418Q885 512 981 512Q995 512 1012 509L1012 413Q991 422 965 422Q914 422 881 377Q848 332 848 270L848 0L750 0L750 507ZM1159 290L1404 290L1404 308Q1402 365 1373 398Q1344 432 1290 432Q1240 432 1204 395Q1168 359 1159 290ZM1467 115L1467 27Q1411 -5 1319 -5Q1201 -5 1131 66Q1061 137 1061 252Q1061 374 1125 443Q1189 513 1288 513Q1385 513 1442 452Q1499 392 1499 278Q1499 247 1493 213L1160 213Q1170 147 1216 112Q1262 77 1332 77Q1413 77 1467 115ZM1684 290L1929 290L1929 308Q1927 365 1898 398Q1869 432 1815 432Q1765 432 1729 395Q1693 359 1684 290ZM1992 115L1992 27Q1936 -5 1844 -5Q1726 -5 1656 66Q1586 137 1586 252Q1586 374 1650 443Q1714 513 1813 513Q1910 513 1967 452Q2024 392 2024 278Q2024 247 2018 213L1685 213Q1695 147 1741 112Q1787 77 1857 77Q1938 77 1992 115ZM2139 507L2237 507L2237 420Q2282 514 2395 514Q2470 514 2514 468Q2558 422 2558 343L2558 0L2460 0L2460 320Q2460 373 2433 401Q2407 429 2363 429Q2311 429 2274 388Q2237 348 2237 275L2237 0L2139 0L2139 507ZM2793 0L2694 0L2694 507L2793 507L2793 0ZM2699 618Q2682 636 2682 662Q2682 688 2699 706Q2717 724 2743 724Q2769 724 2787 706Q2805 688 2805 662Q2805 637 2787 619Q2769 601 2743 601Q2717 601 2699 618ZM3196 708L3196 622Q3173 632 3148 632Q3075 632 3075 545L3075 507L3182 507L3182 431L3075 431L3075 0L2977 0L2977 431L2896 431L2896 507L2977 507L2977 546Q2977 625 3019 670Q3062 716 3139 716Q3167 716 3196 708ZM3409 11L3207 507L3316 507L3379 342L3458 128Q3467 158 3530 342L3587 507L3691 507L3508 14Q3435 -181 3285 -181Q3258 -181 3239 -176L3239 -92Q3255 -96 3273 -96Q3370 -96 3409 11Z" fill="#446553" style=""></path></g></g></g></svg>